<svg xmlns="http://www.w3.org/2000/svg" xmlns:xlink="http://www.w3.org/1999/xlink" width="500" zoomAndPan="magnify" viewBox="0 0 375 374.999991" height="500" preserveAspectRatio="xMidYMid meet" version="1.0"><defs><clipPath id="5afcd9458a"><path d="M 21.199219 146.414062 L 103.371094 146.414062 L 103.371094 228.585938 L 21.199219 228.585938 Z M 21.199219 146.414062 " clip-rule="nonzero"/></clipPath><clipPath id="ce0abf3294"><path d="M 62.285156 146.414062 C 39.59375 146.414062 21.199219 164.808594 21.199219 187.5 C 21.199219 210.191406 39.59375 228.585938 62.285156 228.585938 C 84.976562 228.585938 103.371094 210.191406 103.371094 187.5 C 103.371094 164.808594 84.976562 146.414062 62.285156 146.414062 Z M 62.285156 146.414062 " clip-rule="nonzero"/></clipPath><clipPath id="3041b50509"><path d="M 146.414062 146.414062 L 228.585938 146.414062 L 228.585938 228.585938 L 146.414062 228.585938 Z M 146.414062 146.414062 " clip-rule="nonzero"/></clipPath><clipPath id="f831943cab"><path d="M 187.5 146.414062 C 164.808594 146.414062 146.414062 164.808594 146.414062 187.5 C 146.414062 210.191406 164.808594 228.585938 187.5 228.585938 C 210.191406 228.585938 228.585938 210.191406 228.585938 187.5 C 228.585938 164.808594 210.191406 146.414062 187.5 146.414062 Z M 187.5 146.414062 " clip-rule="nonzero"/></clipPath><clipPath id="76d53fa829"><path d="M 271.628906 146.414062 L 353.800781 146.414062 L 353.800781 228.585938 L 271.628906 228.585938 Z M 271.628906 146.414062 " clip-rule="nonzero"/></clipPath><clipPath id="b0e4f39021"><path d="M 312.714844 146.414062 C 290.023438 146.414062 271.628906 164.808594 271.628906 187.5 C 271.628906 210.191406 290.023438 228.585938 312.714844 228.585938 C 335.40625 228.585938 353.800781 210.191406 353.800781 187.5 C 353.800781 164.808594 335.40625 146.414062 312.714844 146.414062 Z M 312.714844 146.414062 " clip-rule="nonzero"/></clipPath></defs><g clip-path="url(#5afcd9458a)"><g clip-path="url(#ce0abf3294)"><path fill="#00bf63" d="M 21.199219 146.414062 L 103.371094 146.414062 L 103.371094 228.585938 L 21.199219 228.585938 Z M 21.199219 146.414062 " fill-opacity="1" fill-rule="nonzero"/></g></g><g clip-path="url(#3041b50509)"><g clip-path="url(#f831943cab)"><path fill="#00bf63" d="M 146.414062 146.414062 L 228.585938 146.414062 L 228.585938 228.585938 L 146.414062 228.585938 Z M 146.414062 146.414062 " fill-opacity="1" fill-rule="nonzero"/></g></g><g clip-path="url(#76d53fa829)"><g clip-path="url(#b0e4f39021)"><path fill="#00bf63" d="M 271.628906 146.414062 L 353.800781 146.414062 L 353.800781 228.585938 L 271.628906 228.585938 Z M 271.628906 146.414062 " fill-opacity="1" fill-rule="nonzero"/></g></g></svg>